<svg width="152" height="166" viewBox="0 0 152 166" fill="none" xmlns="http://www.w3.org/2000/svg">
<path d="M3.1124 159.202L71.6357 9.53264C73.0235 6.50123 73.7175 4.98553 74.6774 4.51403C75.5115 4.1043 76.4885 4.1043 77.3226 4.51403C78.2825 4.98553 78.9765 6.50123 80.3643 9.53264L146.606 154.218C148.272 157.858 149.106 159.678 148.767 160.772C148.473 161.72 147.73 162.462 146.781 162.753C145.685 163.089 143.868 162.251 140.232 160.575L140.232 160.575L88.3095 136.639C86.0445 135.595 84.9119 135.073 83.9958 135.229C83.1954 135.366 82.4844 135.821 82.0254 136.49C81.5 137.257 81.5 138.504 81.5 140.998V161.2C81.5 162.88 81.5 163.72 81.173 164.362C80.8854 164.926 80.4265 165.385 79.862 165.673C79.2202 166 78.3802 166 76.7 166H70.5H12H7.47674C4.98883 166 3.74488 166 2.97893 165.476C2.30968 165.018 1.85431 164.309 1.71656 163.51C1.55891 162.595 2.07674 161.464 3.1124 159.202Z" fill="black"/>
</svg>
